<mxfile host="app.diagrams.net" modified="2023-12-05T06:55:39.902Z" agent="Mozilla/5.0 (Windows NT 10.0; Win64; x64) AppleWebKit/537.36 (KHTML, like Gecko) Chrome/119.0.0.0 Safari/537.36" version="21.8.2" etag="4UTnfEx1HpNWYZLBLR1y" type="github">
  <diagram name="Page-1" id="uKRzlKkysFN2Nw6wEXpV">
    <mxGraphModel>
      <root>
        <mxCell id="0" />
        <mxCell id="1" parent="0" />
      </root>
    </mxGraphModel>
  </diagram>
</mxfile>
